<svg width="210" height="217" viewBox="0 0 210 217" fill="none" xmlns="http://www.w3.org/2000/svg">
<path d="M92.2993 4.12438C95.2386 2.42736 98.86 2.42736 101.799 4.12438L175.329 46.5769C178.269 48.274 180.079 51.4102 180.079 54.8042V139.709C180.079 143.103 178.269 146.24 175.329 147.937L101.799 190.389C98.86 192.086 95.2386 192.086 92.2993 190.389L18.7693 147.937C15.83 146.24 14.0193 143.103 14.0193 139.709V54.8042C14.0193 51.4102 15.83 48.274 18.7693 46.5769L92.2993 4.12438Z" stroke="white"/>
<path opacity="0.5" d="M108.759 26.8787C111.543 25.271 114.974 25.271 117.759 26.8787L191.289 69.3313C194.073 70.939 195.789 73.9101 195.789 77.1255V162.031C195.789 165.246 194.073 168.217 191.289 169.825L117.759 212.277C114.974 213.885 111.543 213.885 108.759 212.277L35.2288 169.825C32.4442 168.217 30.7288 165.246 30.7288 162.031V77.1255C30.7288 73.9101 32.4442 70.939 35.2288 69.3313L108.759 26.8787Z" stroke="white" stroke-width="2"/>
<path d="M99.0306 16.4727C102.125 14.6864 105.937 14.6864 109.031 16.4727L180.302 57.6215C183.396 59.4078 185.302 62.7091 185.302 66.2817V148.579C185.302 152.152 183.396 155.453 180.302 157.24L109.031 198.388C105.937 200.175 102.125 200.175 99.0306 198.388L27.7588 157.24C24.6648 155.453 22.7588 152.152 22.7588 148.579V66.2817C22.7588 62.7091 24.6648 59.4078 27.7588 57.6215L99.0306 16.4727Z" fill="white"/>
<path d="M133.898 82.3485L103.697 94.8387L70.6002 75.9352L59.3242 55.334L133.898 82.3485Z" fill="#181818"/>
<path d="M148.737 165.38L74.1582 138.37L104.359 125.88L137.461 144.784L148.737 165.38Z" fill="#181818"/>
<path d="M136.415 85.2058V108.732L71.6494 135.513V111.982L136.415 85.2058Z" fill="#181818"/>
</svg>
