<svg width="49" height="48" viewBox="0 0 49 48" fill="none" xmlns="http://www.w3.org/2000/svg">
<path fill-rule="evenodd" clip-rule="evenodd" d="M24.6865 0.0746155C11.366 0.0746155 0.561523 10.8791 0.561523 24.1996C0.561523 34.8561 7.51781 43.8844 16.9902 47.1406C18.1743 47.2886 18.6183 46.5485 18.6183 45.9565C18.6183 45.3645 18.6183 43.8844 18.6183 41.8124C11.958 43.2924 10.4779 38.5562 10.4779 38.5562C9.44189 35.7441 7.81383 35.0041 7.81383 35.0041C5.59373 33.524 7.96183 33.524 7.96183 33.524C10.3299 33.672 11.662 36.0401 11.662 36.0401C13.8821 39.7403 17.2862 38.7042 18.6183 38.1122C18.7663 36.4841 19.5063 35.4481 20.0983 34.8561C14.7701 34.264 9.14588 32.192 9.14588 22.8676C9.14588 20.2035 10.0339 18.1314 11.662 16.3553C11.514 15.9113 10.6259 13.3952 11.958 10.139C11.958 10.139 14.0301 9.54701 18.6183 12.6551C20.5424 12.0631 22.6144 11.9151 24.6865 11.9151C26.7586 11.9151 28.8307 12.2111 30.7548 12.6551C35.343 9.54701 37.4151 10.139 37.4151 10.139C38.7471 13.3952 37.8591 15.9113 37.7111 16.5033C39.1911 18.1314 40.2272 20.3515 40.2272 23.0156C40.2272 32.34 34.6029 34.264 29.2747 34.8561C30.1628 35.5961 30.9028 37.0762 30.9028 39.2962C30.9028 42.5524 30.9028 45.0685 30.9028 45.9565C30.9028 46.5485 31.3468 47.2886 32.5309 47.1406C42.1513 43.8844 48.9595 34.8561 48.9595 24.1996C48.8115 10.8791 38.0071 0.0746155 24.6865 0.0746155Z" fill="#191717"/>
</svg>
