<svg width="49" height="49" viewBox="0 0 49 49" fill="none" xmlns="http://www.w3.org/2000/svg">
<g clip-path="url(#clip-linkedin)">
<rect x="2.2356" y="2.42581" width="44.681" height="44.5797" fill="white"/>
<path d="M44.4466 0.740143H4.92257C2.5119 0.740143 0.557617 2.69443 0.557617 5.1051V44.629C0.557617 47.0398 2.5119 48.994 4.92257 48.994H44.4464C46.8572 48.994 48.8115 47.0398 48.8115 44.629V5.1051C48.8115 2.69443 46.8572 0.740143 44.4466 0.740143ZM15.4894 42.4057C15.4894 43.1073 14.9207 43.676 14.2192 43.676H8.81194C8.11036 43.676 7.54168 43.1073 7.54168 42.4057V19.7389C7.54168 19.0373 8.11036 18.4687 8.81194 18.4687H14.2192C14.9207 18.4687 15.4894 19.0373 15.4894 19.7389V42.4057ZM11.5155 16.332C8.67855 16.332 6.37866 14.0321 6.37866 11.1951C6.37866 8.35807 8.67855 6.05818 11.5155 6.05818C14.3525 6.05818 16.6524 8.35807 16.6524 11.1951C16.6524 14.0321 14.3527 16.332 11.5155 16.332ZM43.7474 42.5081C43.7474 43.1531 43.2244 43.676 42.5794 43.676H36.7771C36.1321 43.676 35.6092 43.1531 35.6092 42.5081V31.876C35.6092 30.29 36.0744 24.9258 31.4642 24.9258C27.8883 24.9258 27.163 28.5974 27.0173 30.2451V42.5081C27.0173 43.1531 26.4945 43.676 25.8494 43.676H20.2375C19.5925 43.676 19.0696 43.1531 19.0696 42.5081V19.6366C19.0696 18.9916 19.5925 18.4687 20.2375 18.4687H25.8494C26.4943 18.4687 27.0173 18.9916 27.0173 19.6366V21.6141C28.3433 19.6242 30.3139 18.0883 34.5095 18.0883C43.8006 18.0883 43.7474 26.7685 43.7474 31.5378V42.5081Z" fill="#0077B7"/>
</g>
<defs>
<clipPath id="clip-linkedin">
<rect width="48.2539" height="48.2539" fill="white" transform="translate(0.557617 0.740143)"/>
</clipPath>
</defs>
</svg>
