<?xml version="1.0" standalone="no"?>
<!DOCTYPE svg PUBLIC "-//W3C//DTD SVG 20010904//EN"
 "http://www.w3.org/TR/2001/REC-SVG-20010904/DTD/svg10.dtd">
<svg version="1.0" xmlns="http://www.w3.org/2000/svg"
 width="260.000000pt" height="260.000000pt" viewBox="0 0 260.000000 260.000000"
 preserveAspectRatio="xMidYMid meet">
<metadata>
Created by potrace 1.14, written by Peter Selinger 2001-2017
</metadata>
<g transform="translate(0.000000,260.000000) scale(0.100000,-0.100000)"
fill="#000000" stroke="none">
<path d="M406 2372 c57 -106 85 -157 133 -242 20 -36 41 -74 46 -85 9 -17 648
-394 697 -410 14 -5 269 92 383 145 11 5 73 31 139 58 65 27 115 52 110 55 -5
3 -115 44 -244 90 -129 47 -392 142 -585 212 -192 70 -397 144 -455 165 -58
21 -142 52 -188 68 l-83 31 47 -87z"/>
<path d="M1820 1764 c-85 -35 -164 -69 -175 -73 -50 -23 -461 -193 -470 -195
-10 -3 -43 -16 -110 -46 -22 -10 -131 -55 -242 -100 -182 -75 -203 -85 -203
-106 -1 -31 -1 -245 0 -373 l0 -100 38 15 c20 8 46 19 57 24 58 26 121 52 130
54 6 2 32 13 58 24 27 12 51 22 54 22 3 0 19 6 36 14 18 8 154 65 302 126 149
61 284 117 300 124 17 8 110 46 208 86 l177 73 0 249 c0 136 -1 248 -2 247 -2
0 -73 -29 -158 -65z"/>
<path d="M1280 963 c-8 -3 -33 -13 -55 -23 -22 -10 -103 -43 -180 -75 -328
-135 -367 -152 -357 -159 8 -5 150 -57 427 -156 159 -58 1075 -390 1098 -399
28 -11 28 -10 -24 87 -28 53 -55 102 -59 107 -4 6 -31 55 -60 110 -29 55 -57
106 -62 112 -9 11 -200 123 -358 211 -25 13 -87 49 -138 79 -195 114 -202 117
-232 106z"/>
</g>
</svg>
